<mxfile host="app.diagrams.net" modified="2024-02-27T13:16:44.971Z" agent="Mozilla/5.0 (Windows NT 10.0; Win64; x64) AppleWebKit/537.36 (KHTML, like Gecko) Chrome/121.0.0.0 Safari/537.36" etag="Vz7X0_WYLUk_iXnQHGpv" version="23.1.5" type="device">
  <diagram name="Page-1" id="I2CbrWHOxf-USkHum6XD">
    <mxGraphModel dx="981" dy="753" grid="1" gridSize="10" guides="1" tooltips="1" connect="1" arrows="1" fold="1" page="1" pageScale="1" pageWidth="827" pageHeight="1169" math="0" shadow="0">
      <root>
        <mxCell id="0" />
        <mxCell id="1" parent="0" />
        <mxCell id="cEqd9sR1Ec6CqkKK_oAy-1" value="1" style="rounded=0;whiteSpace=wrap;html=1;" vertex="1" parent="1">
          <mxGeometry x="60" y="435" width="90" height="40" as="geometry" />
        </mxCell>
        <mxCell id="cEqd9sR1Ec6CqkKK_oAy-2" value="2" style="rounded=0;whiteSpace=wrap;html=1;" vertex="1" parent="1">
          <mxGeometry x="200" y="435" width="80" height="40" as="geometry" />
        </mxCell>
        <mxCell id="cEqd9sR1Ec6CqkKK_oAy-3" value="4" style="rounded=0;whiteSpace=wrap;html=1;" vertex="1" parent="1">
          <mxGeometry x="200" y="490" width="80" height="40" as="geometry" />
        </mxCell>
        <mxCell id="cEqd9sR1Ec6CqkKK_oAy-4" value="5" style="rounded=0;whiteSpace=wrap;html=1;" vertex="1" parent="1">
          <mxGeometry x="200" y="549.5" width="80" height="35" as="geometry" />
        </mxCell>
        <mxCell id="cEqd9sR1Ec6CqkKK_oAy-5" value="3" style="rounded=0;whiteSpace=wrap;html=1;" vertex="1" parent="1">
          <mxGeometry x="320" y="435" width="80" height="40" as="geometry" />
        </mxCell>
        <mxCell id="cEqd9sR1Ec6CqkKK_oAy-20" value="3" style="rounded=0;whiteSpace=wrap;html=1;" vertex="1" parent="1">
          <mxGeometry x="320" y="490" width="80" height="40" as="geometry" />
        </mxCell>
        <mxCell id="cEqd9sR1Ec6CqkKK_oAy-21" value="" style="edgeStyle=elbowEdgeStyle;elbow=vertical;endArrow=classic;html=1;curved=0;rounded=0;endSize=8;startSize=8;exitX=1;exitY=0.5;exitDx=0;exitDy=0;" edge="1" parent="1" source="cEqd9sR1Ec6CqkKK_oAy-1">
          <mxGeometry width="50" height="50" relative="1" as="geometry">
            <mxPoint x="50" y="620" as="sourcePoint" />
            <mxPoint x="170" y="530" as="targetPoint" />
            <Array as="points">
              <mxPoint x="180" y="455" />
            </Array>
          </mxGeometry>
        </mxCell>
        <mxCell id="cEqd9sR1Ec6CqkKK_oAy-22" value="" style="edgeStyle=elbowEdgeStyle;elbow=vertical;endArrow=classic;html=1;curved=0;rounded=0;endSize=8;startSize=8;entryX=0;entryY=0.5;entryDx=0;entryDy=0;exitX=1;exitY=0.5;exitDx=0;exitDy=0;" edge="1" parent="1" source="cEqd9sR1Ec6CqkKK_oAy-1" target="cEqd9sR1Ec6CqkKK_oAy-4">
          <mxGeometry width="50" height="50" relative="1" as="geometry">
            <mxPoint x="50" y="620" as="sourcePoint" />
            <mxPoint x="100" y="570" as="targetPoint" />
            <Array as="points">
              <mxPoint x="300" y="540" />
            </Array>
          </mxGeometry>
        </mxCell>
      </root>
    </mxGraphModel>
  </diagram>
</mxfile>
